<svg xmlns="http://www.w3.org/2000/svg" width="24" height="24" fill="none" viewBox="0 0 24 24">
  <path fill="#121212" stroke="#121212" stroke-linecap="round" stroke-linejoin="round" stroke-width="1.5" d="M10.875 14.536a.75.75 0 0 0-.683 1.059 1.908 1.908 0 0 0-.192.834v3.428a.4.4 0 0 1-.114.282.366.366 0 0 1-.261.111h-5.5a.366.366 0 0 1-.261-.11.402.402 0 0 1-.114-.283v-9.714a.408.408 0 0 1 .15-.314L12 3.928l8.1 5.9a.408.408 0 0 1 .15.314V20.25h-5.875a.366.366 0 0 1-.261-.11.402.402 0 0 1-.114-.283V16.43c0-.499-.195-.979-.545-1.335a1.866 1.866 0 0 0-1.33-.558h-1.25Z"/>
</svg>
