<svg xmlns="http://www.w3.org/2000/svg" width="24" height="24" fill="none" viewBox="0 0 24 24">
  <path fill="#121212" stroke="#121212" stroke-width="1.5" d="M15.781 13.75h2.438a2.25 2.25 0 0 1 2.225 1.917l.686 4.583h-6.81a1.25 1.25 0 0 1-1.236-1.435l.471-3.148a2.25 2.25 0 0 1 2.225-1.917Zm-5-9h2.438a2.25 2.25 0 0 1 2.225 1.917l.685 4.583H9.322a1.25 1.25 0 0 1-1.236-1.435l.471-3.148a2.25 2.25 0 0 1 2.225-1.917Zm-5 9H8.22a2.25 2.25 0 0 1 2.225 1.917l.47 3.148A1.25 1.25 0 0 1 9.68 20.25H4.32a1.25 1.25 0 0 1-1.236-1.435l.471-3.148A2.25 2.25 0 0 1 5.78 13.75Z"/>
</svg>
