<svg xmlns="http://www.w3.org/2000/svg" width="24" height="24" fill="none" viewBox="0 0 24 24">
  <path fill="#121212" stroke="#121212" stroke-width="1.5" d="M17.145 5.73a6.697 6.697 0 0 1 1.56 2.176c.36.81.545 1.676.545 2.55a6.27 6.27 0 0 1-.544 2.548c-.36.81-.89 1.55-1.56 2.175L12 19.973 6.854 15.18a6.696 6.696 0 0 1-1.56-2.176 6.27 6.27 0 0 1-.544-2.549c0-.873.184-1.74.544-2.549.36-.81.89-1.55 1.56-2.175A7.312 7.312 0 0 1 9.21 4.265 7.758 7.758 0 0 1 12 3.748c.96 0 1.909.176 2.792.517.883.341 1.683.84 2.354 1.466Z"/>
  <circle cx="12" cy="11" r="2.25" fill="#fff" stroke="#121212" stroke-width="1.5"/>
</svg>
